<svg xmlns="http://www.w3.org/2000/svg" width="32" height="32" viewBox="0 0 32 32">
  <defs>
    <linearGradient id="bg" x1="0%" y1="0%" x2="100%" y2="100%">
      <stop offset="0%" style="stop-color:#1e1e2e"/>
      <stop offset="100%" style="stop-color:#11111b"/>
    </linearGradient>
    <linearGradient id="s" x1="0%" y1="0%" x2="100%" y2="100%">
      <stop offset="0%" style="stop-color:#cba6f7"/>
      <stop offset="40%" style="stop-color:#89b4fa"/>
      <stop offset="70%" style="stop-color:#74c7ec"/>
      <stop offset="100%" style="stop-color:#94e2d5"/>
    </linearGradient>
    <linearGradient id="flow" x1="0%" y1="0%" x2="100%" y2="0%">
      <stop offset="0%" style="stop-color:#cba6f7;stop-opacity:0.2"/>
      <stop offset="100%" style="stop-color:#94e2d5;stop-opacity:0.1"/>
    </linearGradient>
  </defs>
  <rect width="32" height="32" rx="6" fill="url(#bg)"/>
  <rect width="32" height="32" rx="6" fill="none" stroke="#313244" stroke-width="1"/>
  <!-- Water flow at bottom -->
  <path d="M0,25 Q8,22 16,25 Q24,28 32,24 L32,32 L0,32 Z" fill="url(#flow)"/>
  <!-- Stylized S as flowing water path -->
  <path d="M21,8 C21,8 20,6 16.5,6 C13,6 10,7.5 10,10.5 C10,13.5 13,14 16,14.5 C19,15 22,15.5 22,18.5 C22,21.5 19,24 15.5,24 C12,24 11,22 11,22" fill="none" stroke="url(#s)" stroke-width="3.5" stroke-linecap="round" stroke-linejoin="round"/>
</svg>
